<?xml version="1.0" encoding="UTF-8"?>
<svg id="b" data-name="레이어 2" xmlns="http://www.w3.org/2000/svg" width="347.8" height="104.2" viewBox="0 0 347.8 104.2">
  <g id="c" data-name="레이어 1">
    <g>
      <path d="M26.6,24.2c4.6-2,6.6-6.2,6.6-11,0-9-7.4-12.6-15.4-12.6H2v49.4h18.4c8.6,0,15.4-4.8,15.4-14,0-6-3.4-10.4-9.2-11.8ZM9,6.8h8.8c4.6,0,8.2,2.8,8.2,7.6s-3.6,7.6-8.2,7.6h-8.8V6.8ZM18.6,43.8h-9.4v-15.8h9.4c5,0,10,2.2,10,8-.2,5.8-4.8,7.8-10,7.8ZM72.4,43.8h-21.6v-16.2h19v-6h-19V6.8h21V.8h-28v49.2h28.6v-6.2ZM116.4,39L87.2.8h-6.8v49.2h7V12l29,38h7V.8h-7v38.2ZM142,27.6h19v-6h-19V6.8h21V.8h-28v49.2h28.6v-6.2h-21.6v-16.2ZM168.6,6.8h14.6v43.2h7V6.8h13.8V.8h-35.4v6ZM244.6.8h-35.4v6h14.4v43.2h7.2V6.8h13.8V.8ZM270,0c-14.2,0-26.2,10.8-26.2,25.2s11.8,25.2,26.2,25.2,26-10.6,26-25S284.2,0,270,0ZM270,44.2c-10.4,0-18.8-8.2-18.8-18.8s8.2-18.8,18.8-18.8,18.8,8.2,18.8,18.8c0,10.4-8.4,18.8-18.8,18.8ZM340.6.8v38.2L311.6.8h-6.8v49.2h7V12l28.8,38h7.2V.8h-7.2Z"/>
      <path d="M20.8,86h11.6v13.8c-3,1-6.2,1.4-9.4,1.4-11,0-19.8-8-19.8-19.2,0-11.4,8.6-19.2,19.8-19.2,3.6,0,8.2,1,11.4,2.6v-3.4c-3.6-1.4-8-2-11.8-2-13,.2-22.6,8.8-22.6,22.2s9.6,22,22.8,22c4.4,0,8.8-.8,13-2.4v-18.6h-14.8v2.8h-.2ZM69.8,72.8c0-8.2-6.2-12.2-13.8-12.2h-11.2v42.8h3.2v-18.8h10.6l11.6,19h4l-12.2-20c4.8-1,7.8-6.2,7.8-10.8ZM57.2,81.8h-9.2v-18.4h9c5.8,0,9.4,3.8,9.4,9.4,0,5.4-4,9-9.2,9ZM98.6,60c-12.4,0-22.8,9.4-22.8,22s10.2,22,22.8,22c12.4,0,22.8-9.4,22.8-22s-10.6-22-22.8-22ZM98.6,101.2c-10.6,0-19.4-8.4-19.4-19.2s8.6-19.2,19.4-19.2c10.6,0,19.4,8.4,19.4,19.2s-8.8,19.2-19.4,19.2ZM156.8,88.4c0,8-3.8,12.8-12.2,12.8s-12.4-4.8-12.4-12.8v-27.8h-3.2v26.4c0,10.4,4.2,17,15.6,17,11,0,15.6-6.8,15.6-17v-26.4h-3.4v27.8h0ZM181.6,60.6h-11.8v42.8h3.2v-18.4h8.6c7.4,0,13.6-4.2,13.6-12.2s-6.2-12.2-13.6-12.2ZM181.6,82.2h-8.4v-19h8.4c5.6,0,10.4,3.6,10.4,9.4-.2,6.2-4.8,9.6-10.4,9.6Z"/>
    </g>
  </g>
</svg>