<?xml version="1.0" encoding="UTF-8"?>
<svg id="b" data-name="레이어 2" xmlns="http://www.w3.org/2000/svg" width="161.999" height="24" viewBox="0 0 161.999 24">
  <g id="c" data-name="레이어 1">
    <g>
      <path d="M8.885.185H0v23.625h8.659c4.47,0,6.789-2.512,7.771-4.009,1.123-1.694,1.403-2.683,1.403-7.805,0-4.685-.098-5.683-1.327-7.723C14.899,1.634,12.192.182,8.882.182M12.15,17.587c-.772,1.095-1.968,1.629-3.655,1.629h-3.039c-.284,0-.516-.224-.516-.502V5.271c0-.275.232-.499.516-.499h3.039c1.703,0,2.624.413,3.512,1.588.772,1.004.888,1.756.888,5.756s-.104,4.54-.745,5.47Z"/>
      <path d="M35.735,15.207c0,2.471-1.513,4.009-3.948,4.009s-3.948-1.535-3.948-4.009V.182h-4.94v15.404c0,4.874,3.738,8.41,8.888,8.41s8.885-3.537,8.885-8.41V.182h-4.94v15.026h.003Z"/>
      <path d="M54.758,14.484c-.082.272-.32.301-.415.301-.098,0-.333-.03-.415-.289L49.608.182h-5.233l8.058,23.625h3.762L64.253.182h-5.236l-4.263,14.303h.003Z"/>
      <path d="M68.047,23.807h16.128v-4.59h-10.468c-.397,0-.723-.313-.723-.7v-3.714c0-.387.324-.7.723-.7h8.824v-4.404h-8.824c-.397,0-.723-.313-.723-.7v-3.528c0-.387.324-.7.723-.7h10.468V.182h-16.128v23.625Z"/>
      <path d="M88.426,4.586h5.565c.458,0,.827.357.827.8v18.424h4.94V5.386c0-.44.369-.8.827-.8h5.565V.182h-17.724v4.404Z"/>
      <path d="M115.674.182h-4.94v23.625h4.94V.182Z"/>
      <path d="M133.351,16.599c-.854,1.762-2.075,2.621-3.728,2.621s-2.567-.847-2.972-1.352c-.714-.886-1.007-1.252-1.007-5.869s.296-4.983,1.007-5.869c.409-.505,1.342-1.352,2.975-1.352,1.949,0,3.258,1.364,3.691,2.716l.159.496h5.093l-.165-.835c-.839-4.28-4.366-7.156-8.778-7.156-3.952,0-6.637,2.252-7.83,4.36-.808,1.432-1.089,2.202-1.089,7.64s.281,6.211,1.089,7.64c1.193,2.108,3.878,4.36,7.83,4.36,4.479,0,7.841-2.666,8.775-6.955l.186-.85h-5.038l-.195.404h-.003Z"/>
      <path d="M153.111.182h-3.92l-8.882,23.625h5.235l1.563-4.514c.112-.328.427-.546.784-.546h6.523c.354,0,.671.218.784.546l1.565,4.514h5.236L153.114.182h-.003ZM152.861,14.59h-3.42c-.644,0-.665-.369-.543-.726l1.199-3.46.647-1.96c.119-.399.701-.399.82,0l.647,1.978,1.19,3.442c.122.357.147.726-.543.726"/>
    </g>
  </g>
</svg>