<?xml version="1.0" encoding="UTF-8"?>
<svg id="b" data-name="레이어 2" xmlns="http://www.w3.org/2000/svg" width="151.831" height="70.094" viewBox="0 0 151.831 70.094">
  <g id="c" data-name="레이어 1">
    <g>
      <path d="M89.109,49.894l16.32,16.383-12.943.137-8.208-8.011c-4.661,6.3-11.042,10.751-18.821,11.568-8.736.918-16.743-3.389-20.593-10.929-3.991-7.817-2.425-17.152,3.839-23.493,2.077-2.102,4.509-3.617,7.146-5.435-4.703-3.962-7.61-9.172-7.065-15.283C49.507,6.717,56.165.637,63.959.047c8.127-.615,15.669,4.812,17.375,12.892,1.417,6.711-1.381,13.115-6.875,16.862l-3.325,2.267,10.756,10.717c1.478-3.782,2.424-7.297,3.508-11.362l17.204.022.01,9.337-10.048.106-3.455,9.005ZM64.18,25.166c2.359-1.415,4.457-2.427,6.13-4.077,2.973-2.933,2.412-7.449-.25-9.845-3.048-2.745-7.251-2.397-9.848.317-2.728,2.852-2.571,7.133.254,9.929l3.714,3.675ZM77.459,51.635l-14.691-14.599c-2.839,1.573-5.578,3.164-7.755,5.529-3.024,3.284-3.81,7.903-2.047,11.873,1.626,3.661,5.311,6.172,9.661,6.284,6.484.167,11.4-3.862,14.832-9.086Z"/>
      <polygon points="35.246 31.422 35.346 40.717 9.327 40.767 9.309 66.45 0 66.45 0 1.746 39.168 1.755 39.184 11.055 9.339 11.068 9.316 31.416 35.246 31.422"/>
      <polygon points="147.825 31.427 147.906 40.72 121.851 40.761 121.841 66.444 112.54 66.457 112.523 1.778 151.831 1.769 151.784 11.051 121.854 11.072 121.846 31.41 147.825 31.427"/>
    </g>
  </g>
</svg>