<?xml version="1.0" encoding="UTF-8"?>
<svg id="b" data-name="레이어 2" xmlns="http://www.w3.org/2000/svg" width="221.062" height="22.08" viewBox="0 0 221.062 22.08">
  <g id="c" data-name="레이어 1">
    <g>
      <path d="M131.04,0l-.051.233-.011,3.739-1.986.108.017,5.853.961-.004.183-.853.861-.241.021-.756.708-.061.358-.748c-.141.045.331-.105.619-.196l1.103-.111.152-.877.958-.127.039-.877,1.136-.21-.3-.88-.701-.027-.086-.596-.045-3.13-.097-.238h10.08l.081,2.914-.475.206-.594.041.027.738-.467.124-1.945.021-.536.134.025.721-.986.134-.177.914-.869.167-.181.889-.763-.024-.158.858-1.047.358-.334.776-1.384.113-.182.759-.015,1.13.926.108.073.83.768.113c-.014-.061.046.204.107.472l.191.584.664-.124.254.504.326.562.674.058.02.746.584.195.438.428c.032.448.038.536.038.531l.889.175.152.787.561.03.363.192.066.834,2.945.006-.032,4.018-8.952-.008-1.011-.14-.009-3.836,1.923-.113-.233-.892c-.683.018-.814-.236-.812-.863l-.971-.244c-.041-.414-.078-.799-.078-.797l-1.272-.189c-.225,0-.283-.027-.44-.753l-1.083-.344-.085-.855-1.612.075-.388.773c.067-.017-.234.057-.727.178l-.221.347-.045,3.509.854.143,1.164.052-.011,3.946-7.731.026-.271-.882.059-3.129,1.953-.088V4.08s-1.938-.095-1.938-.095l-.066-3.743.138-.241h7.92Z"/>
      <path d="M210.96,0l.025.956,2.205.088.646.259c.196.481.264.651.257.632l.895.216.121.798h.763s.226,1.06.226,1.06l.849.067.135,1.875.891.212.009,8.965-.11.708-.787.206-.062.505-.04,1.434h-.971s-.02,1-.02,1l-.928.043-.105.861-.942.153-.873.105-.17.805-1.954.158-.182.909h-12.83s-.007-4.008-.007-4.008l2.986-.039.019-13.442-.398-.53-.902.006-1.702-.063-.002-3.94h12.96ZM214.885,11.97l.038-1.854-.869-.181-.047-2.745-.14-1.141-.873-.152-.189-.901-1.301-.052-.409-.67-.347-.267-6.744.026-.007,13.968,6.956-.009.032-.885.884-.143.293-.808.884-.231c.049-.405.11-.897.088-.723l.907-.398.004-2.795.839-.039Z"/>
      <path d="M31.92,0l.023.971,1.911.049.932.181.152.724,1.033.124.121.902.823.012.201,1.049.825.175.027.614.158,1.114.82.165.053,1.12.01,7.916-.218.75-.745.175-.061.509-.042,1.406-.852.108-.233.938-.74-.02-.17.93-.968.122-.875.123-.124.805-1.35.096-.639.048-.035.691-.94.22-11.975.002-.006-4.012,2.779-.033.195-.461.004-13.332-1.194-.207-1.679.023-.092-1.111-.088-2.886h12.96ZM35.009,12.041l1.013-.131-.06-2.884-.926-.043-.135-2.531c-.095-.173-.251-.459-.196-.359l-.724-.349-.062-.704-.578.005-1.16-.328-.371-.718-6.797.038.014,13.964,6.897-.007.049-.922,1.09-.194.024-.743.755-.041.189-.625c.015-.085.282-.304.488-.401l.482-.323.009-2.703Z"/>
      <path d="M90,0l-.012.958,1.464.056.479.112.03.727.866.097.989.211.248.819.748.152.29,1.741.815.055.053.686.341.439.66-.071.082,3.791.873.344-.008,1.837c-.654.224-.714.257-.871.375l-.062,3.679-.957.073-.049,1.884-.973.096-.122.9-.731.021-.204.584-.437.403-1.348.159-.202.814-1.942.185-.048.878-5.497.027-.487-.117.021-.723-.699-.167-.99-.042-1.227-.089-.011-.827-1.07-.18-.154-.826-.857-.182.049-.768-1.041-.152-.031-1.813-.855-.106-.199-.924.002-1.112-.885-.127-.007-5.887.909-.086.098-1.885.956-.034.012-1.924h.878s.166-.848.166-.848c-.019.008.206-.087.405-.172.249-.093.521-.195.463-.173l.256-.868.894-.155.035-.653.904-.115,1.98-.145.011-.931h6ZM90.082,17.077c.812-.258.965-.307.904-.288.218-.649.265-.79.229-.683l.796-.272.032-.742.737-.009.255-.65-.044-.782.215-.674.79.065.037-3.945-.89-.219-.159-1.648-.824-.32-.161-.64-.731-.418c.051.212-.018-.075-.095-.397l-.278-.472-.88-.102-.04-.854-5.923.012-.117.805-1.139.127-.742.196-.116.833-.754-.017-.172.728-.06,1.136-.961.194-.024,5.408.127.486.715-.011.148.704.173,1.169.896.355.295.783,1.583.078.104.991,5.963-.007c.057-.468.113-.926.112-.917Z"/>
      <path d="M114,0l-.008.956,1.461.055.479.113.034.728.694.07,1.169.238.236.817.749.154.289,1.741.818.056.045.68.346.442.662-.048.096,4.325-.084,5.598-.906.037-.048.737-.387.335c-.444.163-.734.269-.626.229l-.073.943-.167.72-.718.123-.196.835-1.268.08-.654.248-.064.692-.696.105-1.079.038-.212.948-5.77.042-.167-.86-.873-.189-1.603-.02-.472-.391-.021-.557-1.031-.163-.027-.741-.73-.095-.189-.727c.048.027-.313-.18-.516-.296-.255-.128-.566-.285-.496-.25l-.114-.901-.803.052-.162-2.08.021-.816-.89-.116-.032-5.793.801-.219.229-1.625-.069-1.098.781-.127c-.036.088.085-.205.215-.52l.328-.494c.576-.136.751-.178.665-.157l.211-.87.809-.165.022-.727.398-.087.661-.175.037-.651,1.903-.258.035-.921h6.96ZM114.079,17.072c.829-.248.938-.281.935-.28l.108-.713.681-.035.193-.415.054-.541.745-.051.244-.606-.051-.79.251-.686.711.02.081-3.379-.169-.637-.703-.02-.148-1.115-.197-.876-.735.015-.057-.701-.758-.411c.051.214-.018-.075-.094-.398l-.276-.471-.879-.107-.041-.847-5.925.007-.122.804-1.133.121-.755.201.009.724-.455.115-.531.104-.06.645-.011.875-.486.352-.527.11-.01,5.371.123.472.716-.009.144.704.177,1.166.894.359.299.78,1.581.08.107.991,5.961-.009c.056-.474.11-.933.108-.92Z"/>
      <path d="M168.96,0l.053,4.003-2.056-.004-.937.259.009,13.733,8.965.014.05-4.012,2.998.016.119,1.088.805.08.023,5.356-.844.446c.005-.032-.064.442-.136.937l-.42.112-16.583-.012-.967-.156-.011-3.835,2.989-.044V4.067s-2.001-.067-2.001-.067l-.284-.852c.157.008-.058-.003-.575-.028l-.168-.951.092-2.17h8.88Z"/>
      <polygon points="196.08 0 196.03 .475 196.003 5.996 192.009 6.001 192.015 4.54 191.856 3.894 191.277 3.997 189.325 4.009 188.418 4.034 187.987 4.546 187.99 17.519 188.278 17.983 190.954 18.038 190.984 21.131 190.708 21.879 190.136 22.002 183.322 22.041 182.965 21.689 182.998 18.013 184.982 17.965 184.98 4.047 181.061 4.018 180.975 6.009 177.019 5.979 177.002 .238 177.12 0 196.08 0"/>
      <polygon points="65.04 0 64.982 1.434 64.962 4.005 62.332 4.012 61.971 4.3 61.982 17.989 70.935 17.999 71.025 13.987 73.978 14.033 73.963 22.022 56.004 22.021 55.992 18.003 58.666 17.988 58.97 17.526 58.971 4.137 56.87 4.005 56.005 3.882 55.92 0 65.04 0"/>
      <path d="M8.16,0l-.07,1.138.881.067-.081,1.74-.799-.016-.15.705-.145.369-1.794.075-.006,13.909,2.025.027-.014.941.912.255-.019,1.667c-.682.193-.859.243-.794.226-.206.72-.216.752-.314.93l-7.334-.014-.459.062v-4.08l1.991-.014.003-13.936-1.994.03V0h8.16Z"/>
      <path d="M220.076,21.954l-1.434.094-.534-.071-.148-.851c.031.01-.18-.059-.741-.242l-.283-1.354.903-.466c-.006.035.066-.417.154-.973l1.368-.129.618.105.058.803.863.13.162,1.482-.466.703c-.503-.256-.57-.019-.52.769Z"/>
      <path d="M15.006,20.997l-.116.988-1.638.086-.387-.917c.159.018-.233-.025-.812-.089l-.016-2.121.829.045.141-.898,1.399-.14.552.16-.024.803,1.057.332-.11,1.691-.876.059Z"/>
      <path d="M40.93,21.995l-1.037-.167c-.097-.728-.178-.837-.386-.704l-.554-.343.044-1.595.032-1.14,2.954-.061.027,2.974-.791.134c.03-.106-.031.09-.289.901Z"/>
    </g>
  </g>
</svg>