<?xml version="1.0" encoding="UTF-8"?>
<svg id="b" data-name="레이어 2" xmlns="http://www.w3.org/2000/svg" width="120" height="60.742" viewBox="0 0 120 60.742">
  <g id="c" data-name="레이어 1">
    <g>
      <path d="M22.658,37.497l-4.428.012-.016-17.098c-.004-4.037-3.009-7.85-7.627-7.473-4.29.351-6.054,4.056-6.055,7.997l-.002,16.579-4.527-.011-.002-27.938,4.421-.03.121,1.967c1.622-1.648,3.485-2.383,5.703-2.581,4.031-.359,7.723,1.213,10.131,4.671,1.685-2.476,4.117-3.957,6.985-4.504,5.349-1.021,10.501,1.738,12.564,6.796.616,1.618.993,3.262.993,5.049v16.547s-4.421.018-4.421.018l-.002-16.043c0-1.656-.292-3.195-.966-4.657-1.577-3.421-5.473-4.816-8.878-3.195-3.323,1.582-3.985,4.182-3.986,7.676l-.006,16.218Z"/>
      <path d="M95.566,25.303c.886,5.927,6.879,9.607,12.266,8.606,3-.557,5.906-2.45,7.446-5.466l4.266,1.589c-2.781,5.317-8.585,8.543-14.632,8.107-5.63-.406-10.546-3.757-12.799-8.937-2.03-4.666-1.427-9.917,1.529-14.154,2.634-3.777,7.175-6.283,12.066-6.153,6.964.184,12.862,5.226,14.035,12.095.245,1.438.251,2.776.258,4.3l-24.434.012ZM115.236,21.204c-.555-2.166-1.429-3.609-2.63-5.014-3.276-3.746-8.744-4.34-12.759-1.356-2.101,1.561-3.554,3.82-4.052,6.385l19.44-.014Z"/>
      <path d="M70.345,37.47l-.086-3.656c-5.98,6.591-16.581,5.36-21.884-1.238-4.724-5.877-4.15-14.509,1.367-19.672,5.561-5.204,15.105-5.711,20.521.318l.087-3.675,4.433.008v27.916s-4.436-.001-4.436-.001ZM70.46,23.531c0-5.772-4.68-10.45-10.454-10.45s-10.454,4.679-10.454,10.45,4.68,10.45,10.454,10.45,10.454-4.679,10.454-10.45Z"/>
      <path d="M76.197,41.426c2.396.012,4.284-.83,4.936-3.02.417-1.401.557-2.801.557-4.324l.003-24.533,4.484.02-.01,26.58c-.002,5.637-4.33,10.121-9.993,9.698l.023-4.421Z"/>
      <path d="M63.915,60.598l-1.654-3.291-1.838.003-.05,3.135c-.02.315-1.188.323-1.222.014l-.012-8.407c1.305-.044,2.496-.057,3.787-.026,1.248.03,2.222,1.081,2.424,2.106.253,1.286-.384,2.391-1.7,3.015l1.714,3.356c-.438.121-1.007.164-1.448.094ZM63.03,56.091c.811-.118,1.166-1.031,1.085-1.579-.094-.634-.681-1.256-1.375-1.261l-2.236-.017-.015,2.931c.879.026,1.662.055,2.541-.073Z"/>
      <path d="M55.113,58.765l-3.948-.01-.838,1.707c-.137.274-.925.211-1.316.034l3.766-8.316c.044-.097.285-.294.38-.267s.313.199.401.396l3.677,8.164c-.248.199-1.096.281-1.27.041-.318-.471-.544-1.058-.852-1.748ZM54.577,57.599l-1.48-3.189-1.473,3.253,2.953-.065Z"/>
      <rect x="81.68" width="4.453" height="5.385"/>
      <path d="M43.907,57.522l-.041,3.114-1.24-.035-.008-8.556,3.132-.025c1.597-.013,2.732,1.378,2.7,2.79-.038,1.646-1.333,2.768-3.001,2.738l-1.542-.027ZM45.974,56.197c.799-.148,1.139-.978,1.098-1.569-.108-1.555-1.969-1.379-3.2-1.311l.006,2.962c.729.014,1.414.044,2.096-.082Z"/>
      <path d="M75.805,60.556c-1.331.446-2.806.065-3.773-.879-.202-.207.311-1.059.57-.924.698.365,1.346.813,2.114.837.495.016,1.077-.337,1.223-.661.988-2.189-3.785-1.807-3.954-4.489-.064-1.005.368-1.958,1.39-2.331,1.162-.424,2.645-.32,3.599.587.233.221-.323,1.077-.596.951-.649-.301-1.285-.65-1.934-.625-.504.019-1.013.438-1.098.771-.125.489.111,1.158.586,1.392l2.196,1.085c.865.427,1.359,1.278,1.338,2.155-.022.923-.582,1.769-1.66,2.13Z"/>
      <path d="M69.388,60.414c-.213.328-1.011.335-1.287.031l-.003-8.306c.424-.156.919-.154,1.282-.004l.008,8.279Z"/>
    </g>
  </g>
</svg>