<?xml version="1.0" encoding="UTF-8"?>
<svg id="b" data-name="레이어 2" xmlns="http://www.w3.org/2000/svg" width="31.994" height="31.994" viewBox="0 0 31.994 31.994">
  <g id="c" data-name="레이어 1">
    <path d="M23.997,2.14C16.356-2.271,6.552.356,2.141,7.997S.356,25.442,7.997,29.853s17.445,1.784,21.857-5.856c4.411-7.64,1.784-17.445-5.857-21.856ZM3.35,9.8l4.916,2.838c-1.096,2.035-1.905,4.066-2.425,5.992l-3.921-2.264c-.062-2.215.4-4.466,1.431-6.566ZM21.461,8.446l2.327-4.03c1.057,1.203,1.382,3.364,1.026,5.966l-3.352-1.936ZM24.429,12.369c-.474,1.918-1.266,3.983-2.36,6.029l-4.765-2.751,3.201-5.544,3.924,2.266ZM22.131,3.459l-2.327,4.03-3.352-1.936c2.075-1.609,4.109-2.409,5.679-2.094ZM18.847,9.146l-3.201,5.544-4.765-2.751c1.225-1.97,2.617-3.689,4.041-5.059l3.924,2.266ZM9.223,10.981l-4.916-2.838c1.303-1.943,3.022-3.468,4.971-4.522l3.921,2.264c-1.408,1.413-2.762,3.129-3.977,5.096ZM9.925,13.596l4.765,2.751-3.201,5.544-3.924-2.266c.474-1.918,1.266-3.983,2.36-6.029ZM10.533,23.548l-2.327,4.03c-1.057-1.203-1.382-3.364-1.026-5.966l3.352,1.936ZM9.863,28.535l2.327-4.03,3.352,1.936c-2.075,1.609-4.109,2.409-5.679,2.094ZM13.146,22.848l3.201-5.544,4.765,2.751c-1.225,1.97-2.618,3.689-4.041,5.059l-3.924-2.266ZM22.771,21.012l4.916,2.838c-1.303,1.943-3.022,3.468-4.971,4.522l-3.921-2.264c1.408-1.413,2.762-3.129,3.977-5.096ZM23.727,19.355c1.096-2.035,1.905-4.066,2.425-5.992l3.921,2.264c.062,2.215-.4,4.466-1.43,6.566l-4.916-2.838ZM29.806,13.263l-3.217-1.858c.284-1.642.339-3.171.156-4.514,1.56,1.845,2.6,4.047,3.062,6.372ZM18.509,2.137c-1.254.513-2.552,1.325-3.832,2.392l-3.217-1.857c2.244-.763,4.672-.963,7.049-.535ZM2.188,18.73l3.217,1.857c-.284,1.642-.339,3.171-.156,4.514-1.56-1.845-2.6-4.047-3.061-6.372ZM13.485,29.857c1.254-.513,2.552-1.325,3.832-2.392l3.217,1.858c-2.244.763-4.672.963-7.049.535Z" fill="#272525"/>
  </g>
</svg>