<?xml version="1.0" encoding="UTF-8"?>
<svg id="b" data-name="레이어 2" xmlns="http://www.w3.org/2000/svg" width="382.542" height="34.393" viewBox="0 0 382.542 34.393">
  <g id="c" data-name="레이어 1">
    <g>
      <path d="M.15,3.552l2.679-1.897v.837L.15,4.389v-.837ZM17.225,1.766c5.301.725,8.538,3.683,8.538,8.482,0,5.357-5.413,8.984-11.44,8.984h-6.64v7.98c0,4.241,2.009,5.246,4.855,5.246h.112v.837H.15v-.837c2.79,0,4.576-1.172,4.576-5.357V9.132c0-4.018-1.562-4.632-4.185-4.632l2.4-1.674h.391c2.622,0,4.352.949,4.352,5.078v10.267h5.692c5.134,0,9.43-3.46,9.43-8.593,0-4.185-2.12-6.808-5.58-7.812ZM22.359,9.579c0,4.91-4.018,8.258-8.984,8.258h-4.687l2.455-.893h1.618c4.743,0,6.585-2.79,6.585-6.975s-2.902-6.306-6.64-6.306h-1.618v12.946l-2.958,1.116V7.681c0-4.241-2.009-5.245-4.854-5.245h-.112v-.837h10.49c5.246,0,8.705,2.678,8.705,7.98ZM11.088,19.567v6.194c0,4.018,1.562,4.632,4.184,4.632l-2.399,1.674h-.391c-2.623,0-4.353-.948-4.353-5.078v-7.422h2.958ZM15.663,31.341l-2.678,1.897v-.837l2.678-1.897v.837Z" fill="#272525" stroke="#fff" stroke-width=".3"/>
      <path d="M41.5,3.552l2.678-1.897v.837l-2.678,1.898v-.837ZM58.24,34.243c8.482,0,12.834-5.19,12.834-14.118V6.732c0-3.18,1.06-4.631,2.734-5.134h-8.091c1.562.502,2.623,1.953,2.623,5.134v14.564c0,7.366-3.516,11.719-9.877,11.719-6.417,0-9.43-3.906-9.43-11.44V7.904c0-4.129-1.73-5.078-4.353-5.078h-.39l-2.4,1.674c2.623,0,4.185.614,4.185,4.632v12.109c0,7.589,3.794,13.002,12.164,13.002ZM49.479,7.681c0-4.241-2.009-5.245-4.855-5.245h-.112v-.837h12.5v.837c-2.79,0-4.576,1.172-4.576,5.357v12.164c0,8.538,2.455,11.551,7.701,11.551,2.567,0,4.632-.948,6.026-2.846-1.562,2.567-4.185,4.018-7.701,4.018-6.138,0-8.984-3.795-8.984-11.105V7.681ZM64.099,2.771v-1.172h.167c1.897.168,3.404,1.06,3.683,4.018-.558-2.176-2.009-2.846-3.85-2.846ZM71.465,5.616c.614-2.176,2.064-2.846,4.185-2.846v-1.172h-.223c-2.176.168-3.683,1.06-3.962,4.018Z" fill="#272525" stroke="#fff" stroke-width=".3"/>
      <path d="M116.944,25.37c0-4.799-3.739-7.924-12.667-7.924h-4.408v9.542c0,4.129-1.729,5.078-4.743,5.078l-2.4-1.674c2.623,0,4.185-.614,4.185-4.632V7.793c0-4.185-1.786-5.357-4.576-5.357v-.837h14.341c4.632,0,8.649,3.069,8.649,7.254,0,4.297-4.408,6.64-5.413,7.031l.112.112c5.301.39,9.988,3.348,9.988,8.705,0,4.743-3.682,8.035-10.156,8.538,4.576-1.06,7.087-4.52,7.087-7.868ZM92.335,30.504l2.678,1.897v.837l-2.678-1.897v-.837ZM95.348,32.457c2.957,0,4.966-1.004,4.966-5.246v-9.43h2.958v13.448h3.906c4.129,0,6.306-3.516,6.306-6.975,0-2.846-1.172-5.078-4.185-6.082,5.301,1.116,7.254,3.85,7.254,7.198,0,3.906-3.46,7.924-10.101,7.924h-11.104v-.837ZM99.868,3.719v11.941h6.864c.446,0,1.506.056,2.009.112.67-.335,3.627-1.674,3.627-6.362,0-3.571-2.734-5.692-7.143-5.692h-5.357ZM100.314,4.054h2.958v11.272h-2.958V4.054ZM111.029,15.773c1.73-.949,4.688-3.237,4.688-6.92,0-3.515-2.734-6.25-6.306-7.198,4.743.223,8.984,2.399,8.984,6.64,0,4.743-4.464,6.92-6.473,7.645l-.893-.167Z" fill="#272525" stroke="#fff" stroke-width=".3"/>
      <path d="M137.813,3.552l2.678-1.897v.837l-2.678,1.898v-.837ZM137.813,33.294v-.837c2.79,0,4.576-1.172,4.576-5.357V9.132c0-4.018-1.562-4.632-4.185-4.632l2.399-1.674h.39c2.623,0,4.353.949,4.353,5.078v24.218h10.937c4.631,0,6.194-3.85,6.752-5.413h1.004l-1.897,6.584h-24.33ZM145.793,31.676V7.681c0-4.241-2.009-5.245-4.855-5.245h-.112v-.837h12.5v.837c-2.79,0-4.576,1.172-4.576,5.357v22.209l-2.957,1.674ZM156.451,30.113c3.571,0,4.855-2.902,5.357-4.297l.893.837c-.614,1.674-2.121,5.134-6.417,5.134h-9.989l2.957-1.674h7.199ZM162.868,26.375l-.893-.837h1.06l.893.837h-1.06Z" fill="#272525" stroke="#fff" stroke-width=".3"/>
      <path d="M180.055,3.552l2.678-1.897v.837l-2.678,1.898v-.837ZM184.631,9.132c0-4.018-1.562-4.632-4.185-4.632l2.399-1.674h.391c2.623,0,4.353.949,4.353,5.078v19.307c0,4.241,2.009,5.246,4.854,5.246h.112v.837h-12.499v-.837c2.79,0,4.575-1.172,4.575-5.357V9.132ZM188.035,7.681c0-4.241-2.009-5.245-4.855-5.245h-.112v-.837h12.499v.837c-2.79,0-4.575,1.172-4.575,5.357v17.968c0,4.018,1.562,4.632,4.185,4.632l-2.4,1.674h-.391c-2.623,0-4.352-.948-4.352-5.078V7.681ZM195.568,31.341l-2.678,1.897v-.837l2.678-1.897v.837Z" fill="#272525" stroke="#fff" stroke-width=".3"/>
      <path d="M213.983,32.066v-4.185c.446.502,3.627,4.073,9.876,4.073,2.846,0,5.581-1.674,5.581-4.743,0-3.292-3.962-5.636-7.645-7.98-2.846-1.841-7.478-4.854-7.478-10.044,0-4.073,2.344-6.919,6.306-7.867-2.512.948-4.13,3.236-4.13,6.305,0,4.408,4.353,7.366,7.589,9.486,3.292,2.12,8.538,5.022,8.538,9.486,0,4.409-3.18,7.311-9.374,7.311-5.19,0-9.263-1.842-9.263-1.842ZM216.549,27.49c1.284,2.065,3.125,3.348,4.967,3.962-3.683-.782-5.524-2.009-7.31-3.962h2.343ZM231.449,6.788c-.67-.781-3.125-3.906-6.864-3.906-2.567,0-4.632,1.227-4.632,4.129,0,3.069,3.906,5.524,6.864,7.478,2.957,2.009,8.593,5.301,8.593,10.435,0,4.185-2.957,7.31-6.919,8.482,2.79-1.283,4.575-3.348,4.575-6.808,0-4.575-5.245-7.644-8.648-9.876-3.181-2.065-7.478-4.799-7.478-9.096,0-4.129,2.957-6.64,7.031-6.64,3.962,0,6.528,1.897,7.478,2.623v3.181ZM231.672,3.384c-1.005-.725-2.288-1.562-4.074-2.12,2.344.391,4.799,1.563,5.86,2.12h-1.786ZM233.681,6.9h-1.898v-3.181h1.898v3.181Z" fill="#272525" stroke="#fff" stroke-width=".3"/>
      <path d="M255.555,1.041l-2.623,1.507v-.781l2.623-1.507v.781ZM257.508,7.96c0-4.073-1.562-4.743-4.241-5.245l2.288-1.284c3.18.447,4.91,1.897,4.91,5.803v19.977c0,4.241,2.01,5.246,4.855,5.246h.112v.837h-12.5v-.837c2.79,0,4.576-1.172,4.576-5.357V7.96ZM260.912,7.29c0-4.185-1.841-5.58-5.022-6.193V.259l12.555,2.232v.781c-2.79-.446-4.575.391-4.575,4.576v7.868l-2.958,1.228V7.29ZM263.87,18.841v6.919c0,4.018,1.562,4.632,4.185,4.632l-2.4,1.674h-.39c-2.623,0-4.353-.948-4.353-5.078v-9.375l2.958,1.228ZM284.237,27.1c0,4.185,1.786,5.357,4.576,5.357v.837h-12.499v-.837h.111c2.846,0,4.855-1.004,4.855-5.246v-8.76h-17.354l-2.567-1.004h19.921V7.904c0-4.129,1.73-5.078,4.353-5.078h.39l2.4,1.674c-2.623,0-4.185.614-4.185,4.632v17.968ZM263.925,16.107h13.895l2.566,1.005h-19.029l2.567-1.005ZM268.445,30.504v.837l-2.678,1.897v-.837l2.678-1.897ZM280.833,16.944l-2.957-1.228v-7.924c0-4.185-1.786-5.357-4.576-5.357v-.837h12.499v.837h-.111c-2.846,0-4.855,1.004-4.855,5.245v9.263ZM275.978,32.401v.837l-2.678-1.897v-.837l2.678,1.897ZM280.833,26.989c0,4.129-1.73,5.078-4.353,5.078h-.39l-2.4-1.674c2.623,0,4.185-.614,4.185-4.632v-6.975h2.957v8.203ZM286.134,2.491v-.837l2.678,1.897v.837l-2.678-1.898Z" fill="#272525" stroke="#fff" stroke-width=".3"/>
      <path d="M314.146,2.491v14.955h7.756c2.846,0,4.185,1.116,4.185,3.124v1.172h-.335c0-2.065-1.339-3.292-4.184-3.292h-7.422v12.276h9.543c4.24-.056,5.635-2.958,6.193-4.408h.725l-1.674,5.747h-21.094v-1.004c2.233,0,3.349-1.674,3.349-5.134V7.737c0-2.957-.837-5.301-4.576-5.301v-.837h23.437l.725,5.748h-1.06c-.279-1.562-1.227-4.855-5.748-4.855h-9.821ZM306.613,32.011l.893-.837v1.004l-.893.837v-1.004ZM306.781,33.294l.948-.893h21.205l.948.893h-23.102ZM317.551,15.717l-2.958,1.283V2.938l2.958,1.451v11.328ZM317.551,30.392h-2.958v-11.662h2.958v11.662ZM317.83,4.11l-2.678-1.283h8.649c3.348,0,5.077,1.674,5.58,4.631l-.837.837c-.335-1.45-1.339-4.185-5.357-4.185h-5.357ZM315.207,17.112l2.4-1.005h3.962c2.566,0,3.906-.893,4.129-2.622l.391-.447v.949c0,2.065-1.339,3.125-4.185,3.125h-6.696ZM326.423,12.815h.558v8.258l-.558.558v-1.061c0-1.786-.948-2.957-2.902-3.292,1.953-.335,2.902-1.451,2.902-3.292v-1.172ZM329.659,8.574h-.948l.893-.892h.948l-.893.892ZM331.836,27.267l-1.674,5.859-.893-.949,1.674-5.803.893.893Z" fill="#272525" stroke="#fff" stroke-width=".3"/>
      <path d="M357.002,7.681c0-4.241-2.009-5.245-4.854-5.245h-.112v-.837h12.054c9.541,0,18.303,5.636,18.303,15.959,0,10.379-8.482,15.736-18.025,15.736h-15.345v-.837c2.79,0,4.576-1.172,4.576-5.357V9.132c0-4.018-1.562-4.632-4.185-4.632l2.4-1.674h.391c2.623,0,4.352.949,4.352,5.078v24.441h7.366c8.203,0,15.179-5.413,15.179-14.453,0-9.319-8.482-14.285-17.411-14.285h-1.729v27.231l-2.958,1.116V7.681ZM349.022,3.552l2.678-1.897v.837l-2.678,1.898v-.837ZM378.653,17.893c0,8.817-6.696,14.118-14.732,14.118h-6.138l2.678-1.004h2.957c6.808,0,11.775-5.19,11.775-12.835,0-6.417-2.01-10.77-6.027-12.946,5.469,2.009,9.487,6.25,9.487,12.667Z" fill="#272525" stroke="#fff" stroke-width=".3"/>
    </g>
  </g>
</svg>