<?xml version="1.0" encoding="UTF-8"?>
<svg id="b" data-name="레이어 2" xmlns="http://www.w3.org/2000/svg" width="282.986" height="82.65" viewBox="0 0 282.986 82.65">
  <g id="c" data-name="레이어 1">
    <path id="d" data-name="path2384" d="M168.419,82.482c-1.997-.401-3.663-1.471-4.34-2.787-.277-.538-.549-1.793-.446-2.06.05-.129.347-.169,1.262-.169h1.197l.079.495c.308,1.925,2.105,2.917,5.273,2.91,2.074-.004,3.885-.522,4.402-1.257.585-.833.471-1.894-.269-2.507-.601-.498-1.563-.779-4.378-1.281-3.481-.621-4.095-.765-4.909-1.149-1.373-.649-1.972-1.532-1.977-2.916-.01-3.123,3.264-4.937,8.044-4.457,1.627.163,2.521.386,3.521.879,1.278.629,2.193,1.883,2.386,3.271l.08.574h-1.276c-1.135,0-1.276-.024-1.278-.211-.003-.481-.595-1.473-1.097-1.837-1.963-1.422-6.51-1.149-7.505.451-.4.644-.39,1.579.023,2.027.511.555,1.156.745,4.657,1.372,4.25.761,5.244,1.097,6.071,2.051.65.75.812,1.222.811,2.371,0,.945-.043,1.168-.324,1.703-.415.788-1.015,1.31-2.101,1.826-1.35.641-2.766.881-5.127.87-1.116-.005-2.34-.079-2.78-.168ZM102.192,74.989v-7.312h4.961c5.575,0,6.084.056,7.324.801.971.584,1.202.825,1.637,1.708.323.657.376.895.371,1.672-.011,1.733-1.037,3.133-2.825,3.853l-.894.36-3.897.041-3.897.041v6.146h-2.78v-7.312ZM111.818,74.144c1.307-.388,1.906-1.128,1.909-2.358.002-.906-.349-1.46-1.185-1.869-.843-.412-2.087-.545-5.123-.546h-2.447s0,2.477,0,2.477v2.477h3.12c2.413,0,3.258-.041,3.727-.18ZM116.401,81.919c.189-.365,2.591-5.264,5.576-11.371l1.403-2.87h3.058l1.099,2.326c2.828,5.984,5.713,12.156,5.713,12.223,0,.041-.645.074-1.434.074h-1.434l-.947-2.115-.947-2.115-3.752.002-3.752.002-.967,2.11-.967,2.11-1.423.003-1.423.003.197-.381ZM126.201,73.176c-.736-1.695-1.368-3.081-1.404-3.081-.054,0-2.652,5.434-2.87,6.001-.051.132.455.162,2.775.162h2.837l-1.338-3.082ZM136.634,74.989v-7.312h5.235c5.562,0,6.094.041,7.498.585,1.565.606,2.373,1.744,2.373,3.342,0,1.43-.687,2.567-1.937,3.204l-.509.26.612.283c.71.329,1.295,1.049,1.402,1.726.039.247.123,1.257.186,2.245.121,1.875.241,2.278.726,2.432.135.043.245.183.245.311,0,.219-.1.234-1.629.234h-1.629l-.073-.332c-.04-.183-.098-.411-.129-.508-.031-.097-.104-.977-.163-1.956-.11-1.843-.181-2.111-.708-2.675-.591-.634-1.17-.721-5.187-.783l-3.656-.056v6.31h-2.659v-7.312ZM147.241,74.031c.779-.246,1.417-.785,1.606-1.357.203-.616.093-1.784-.206-2.188-.379-.513-1.13-.866-2.113-.993-.489-.064-2.317-.117-4.062-.119l-3.172-.004v4.985l3.656-.061c2.946-.049,3.779-.1,4.292-.262ZM156.575,74.989v-7.312h2.659v14.623h-2.659v-7.312ZM243.589,70.498c-.299-.021-.992-.07-1.541-.111l-.997-.073v-6.729l1.984.07c2.252.08,3.35-.049,4.803-.563,2.377-.841,4.216-2.535,5.541-5.102.556-1.077,1.315-3.12,1.509-4.061l.081-.395-.826.059c-.454.033-2.008.09-3.454.126l-2.628.067-.954-1.967c-.525-1.082-1.537-3.164-2.251-4.626s-1.692-3.474-2.174-4.472c-.482-.997-1.543-3.172-2.357-4.834s-1.874-3.837-2.357-4.834c-.482-.997-1.516-3.118-2.296-4.713-4.551-9.302-5.982-12.266-5.982-12.396,0-.068,2.882-.112,7.281-.111h7.281s1.381,3.172,1.381,3.172c3.551,8.152,6.15,14.086,7.502,17.129.812,1.828,1.847,4.221,2.299,5.317,1.548,3.754,2.73,6.45,2.844,6.487.062.02.627-1.635,1.255-3.678.628-2.043,1.49-4.721,1.915-5.95,1.87-5.41,3.51-10.19,5.037-14.684.903-2.659,1.851-5.432,2.106-6.163l.464-1.329,6.965-.031c3.831-.017,6.965-.006,6.965.025s-.618,1.704-1.374,3.717c-.756,2.013-2.003,5.347-2.771,7.407-.768,2.061-2.492,6.683-3.831,10.272-1.339,3.589-2.737,7.342-3.107,8.339-4.906,13.214-5.298,14.17-6.845,16.678-3.35,5.431-7.199,7.398-15.488,7.915-1.785.111-4.684.132-5.982.042ZM19.589,54.182c-5.417-.215-10.016-.863-12.912-1.819-3.984-1.316-6.183-4.038-6.604-8.174-.072-.707-.095-1.558-.051-1.89l.08-.604h7.054c3.88,0,7.054.014,7.053.03,0,.017-.082.329-.18.695-.36,1.341-.18,2.351.57,3.204,1.457,1.655,5.014,2.475,10.742,2.476,5.834.001,9.736-.798,11.573-2.37,1.157-.991,1.483-2.737.795-4.268-.563-1.256-1.678-2.043-3.619-2.556-.838-.222-1.499-.27-4.955-.361-11.71-.31-15.459-.578-19.49-1.395-3.218-.652-4.9-1.422-6.435-2.947-.82-.815-1.139-1.24-1.544-2.054-.878-1.765-1.036-2.582-1.044-5.378-.006-2.177.021-2.513.271-3.378.153-.529.477-1.345.719-1.813.568-1.097,2.076-2.634,3.192-3.254,2.202-1.222,5.521-1.948,11.232-2.455,3.001-.266,15.771-.311,18.659-.065,5.39.459,8.568,1.12,10.756,2.237,1.886.963,3.444,2.953,3.986,5.092.196.775.425,2.421.425,3.057v.396h-13.373l-.214-.994c-.407-1.894-1.128-2.835-2.478-3.237-1.313-.391-2.535-.493-6.776-.565-4.301-.074-6.078.025-7.995.443-1.668.364-2.797.892-3.611,1.688-.818.801-1.017,1.322-.999,2.624.026,1.876.676,2.979,1.975,3.351,1.265.363,5.255.661,12.322.921,10.76.395,16.74,1.286,19.468,2.899,1.118.661,2.171,1.828,2.755,3.053.802,1.682.918,2.337.92,5.165.001,2.788-.152,3.614-.971,5.235-2.285,4.523-7.394,6.359-19.391,6.97-2.083.106-9.612.132-11.904.041ZM105.032,54.136c-11.993-.662-16.542-2.672-18.073-7.983-.188-.651-.275-1.377-.324-2.676l-.066-1.783h7.086c3.897,0,7.086.033,7.086.073s-.087.407-.194.816c-.753,2.884,1.348,4.57,6.599,5.297,1.753.243,8.344.206,10.221-.057,3.836-.537,6.183-1.616,6.949-3.195.421-.867.399-2.289-.048-3.204-.61-1.246-1.708-2.003-3.657-2.521-.827-.22-1.496-.268-4.944-.36-9.708-.258-13.117-.445-16.496-.9-5.672-.765-8.484-1.952-10.224-4.316-1.197-1.625-1.721-3.339-1.825-5.967-.163-4.105.912-6.698,3.562-8.592,2.143-1.532,5.796-2.392,12.476-2.939,2.544-.208,12.806-.29,15.892-.126,10.439.553,14.551,2.03,16.37,5.88.486,1.029.835,2.487.932,3.891l.077,1.119-6.685-.031-6.685-.031-.28-1.142c-.785-3.2-1.815-3.561-10.195-3.567-3.972-.003-4.846.029-5.975.219-2.331.392-4.049,1.121-4.883,2.071-.597.68-.78,1.348-.719,2.626.09,1.882.654,2.803,1.948,3.173,1.232.353,5.279.653,12.289.911,11.023.406,17.094,1.336,19.666,3.012,1.141.744,1.917,1.62,2.516,2.841.647,1.319.855,2.1,1.032,3.864.262,2.618-.171,5.092-1.244,7.11-.541,1.018-2.208,2.694-3.315,3.333-2.781,1.606-6.8,2.508-13.58,3.049-2.128.17-12.802.245-15.288.108ZM195.731,54.19c-7.632-.408-12.058-1.225-15.288-2.823-2.146-1.062-3.323-2.216-4.47-4.386-.999-1.889-1.624-4.102-2.075-7.341-.305-2.189-.306-8.18-.003-10.199.637-4.235,1.986-7.252,4.124-9.22,1.05-.967,1.824-1.456,3.332-2.106,2.586-1.115,6.132-1.842,11.238-2.305,2.394-.217,12.853-.217,15.167,0,6.3.591,10.488,1.718,12.864,3.462,2.45,1.798,4.017,4.803,4.731,9.069.204,1.223.44,5.159.468,7.825l.005.453h-38.178l-.083.442c-.147.784.042,3.775.305,4.844.451,1.826,1.292,3.123,2.546,3.922,1.898,1.211,6.616,1.791,12.572,1.547,6.142-.252,7.895-.898,8.708-3.214.138-.392.282-1.135.319-1.65l.069-.937h13.756l-.076,1.36c-.129,2.318-.44,3.409-1.36,4.763-2.313,3.406-7.419,5.426-15.859,6.274-1.768.178-10.725.331-12.81.22ZM212.129,29.276c-.184-4.151-1.268-5.624-4.642-6.306-3.273-.662-9.899-.783-13.448-.247-2.312.35-3.911.981-4.658,1.839-.898,1.032-1.469,2.834-1.589,5.015l-.074,1.36h24.485l-.074-1.662ZM62.431,34.926v-18.853h13.777v37.706h-13.777v-18.853ZM148.961,26.89V0h13.777v53.779h-13.777v-26.89ZM62.431,3.807V0h13.777v7.614h-13.777v-3.807Z"/>
  </g>
</svg>